<svg xmlns="http://www.w3.org/2000/svg" viewBox="0 0 1054 1054" width="1054" height="1054">
	<g id="Layer">
		<path id="Layer" class="shp0" d="M1054,527c0,291.05 -235.94,527 -527,527c-291.05,0 -527,-235.94 -527,-527c0,-291.05 235.95,-527 527,-527c291.06,0 527,235.95 527,527zM521.51,940.76l-408.27,-408.27c2.92,224.19 184.08,405.35 408.27,408.27zM940.83,527v0h-76.01v0h-189.18v81.08h179.37c-27.07,109.87 -107.89,198.59 -212.99,236.64l-432.75,-432.75c47.05,-129.94 171.54,-222.79 317.72,-222.79c114.81,0 216.23,57.29 277.28,144.83l57.3,-50.56c-75.25,-103.2 -197.07,-170.28 -334.57,-170.28c-196.71,0 -361.35,137.25 -403.42,321.21l496.04,496.04c183.96,-42.06 321.21,-206.71 321.21,-403.42z" fill="#FFF" />
	</g>
</svg>